# xmcd CD database file
#
# Track frame offsets:
#	150
#	36408
#	54348
#	85988
#	118628
#	155798
#	187501
#	222583
#	250686
#	292113
#	319883
#
# Disc length: 4416 seconds
#
# Revision: 1
# Processed by: cddbd v1.5.2PL0 Copyright (c) Steve Scherf et al.
# Submitted via: CDex 1.70beta2
#
DISCID=9f113e0b
DTITLE=Pat Metheny - Metheny Mehldau Quartet
DYEAR=2007
DGENRE=Jazz
TTITLE0=A Night Away
TTITLE1=The Sound Of Water
TTITLE2=Fear And Trembling
TTITLE3=Don´t Wait
TTITLE4=Towards The Light
TTITLE5=Long Before
TTITLE6=EnLa Tierra Que No Olvida
TTITLE7=Santa Cruz Slacker
TTITLE8=Secret Beach
TTITLE9=Silent Movie
TTITLE10=Marta´s Theme
EXTD=YEAR: 2007
EXTT0=
EXTT1=
EXTT2=
EXTT3=
EXTT4=
EXTT5=
EXTT6=
EXTT7=
EXTT8=
EXTT9=
EXTT10=
PLAYORDER=
